<svg id="Capa_1" data-name="Capa 1" xmlns="http://www.w3.org/2000/svg" xmlns:xlink="http://www.w3.org/1999/xlink" viewBox="0 0 291.94 383.09"><defs><style>.cls-1{fill:none;}.cls-2{clip-path:url(#clip-path);}.cls-3{fill:#fff;}</style><clipPath id="clip-path" transform="translate(-336.46 -98.53)"><rect class="cls-1" x="-138.5" y="25.21" width="1366" height="768"/></clipPath></defs><title>mmento logo</title><g class="cls-2"><path class="cls-3" d="M620.75,459.88a20.83,20.83,0,0,0-7.36-.94H377a13.61,13.61,0,0,1-3.69-.33c-9.75-2.73-15.68-11.46-14.1-21.23a18.78,18.78,0,0,1,18.91-15.49q117.27.17,234.55.06c1.37,0,2.75,0,4.11-.08,7.34-.59,11.53-5.09,11.53-12.49q0-81.74,0-163.47c0-.74-.08-1.49-.12-2.23,0-1.5.1-3,.1-4.48,0-41.88-.09-83.75.13-125.62,0-7-1.85-12.08-8.34-15H371.64c-.45.8-1.28.62-2,.77-18.68,3.93-32.84,19.72-33,38.2-.34,33.4-.06,66.8,0,100.2,0,.62-.12,1.24-.12,1.86q0,100.44,0,200.88a39.39,39.39,0,0,0,1.18,9.61c4.85,19.19,20.87,31.55,41.1,31.56q118.39,0,236.79,0c.75,0,1.5,0,2.24,0a11.51,11.51,0,0,0,10.42-9.66A11.31,11.31,0,0,0,620.75,459.88ZM417.54,159.14c21.85-5.48,44.17-6.58,66.6-6.28,20.95-.16,41.75,1.13,62.3,5.72,11.93,2.67,16.91,8.12,14.49,21.52-6.12,33.93-11,68.09-15.82,102.24-1.21,8.59-4.65,12.45-13.29,14.24a237,237,0,0,1-97,.14c-9.32-1.9-12.8-6-14.09-15.16q-7.42-52.65-16.23-105.13C402.7,165.31,408.85,161.31,417.54,159.14ZM387.18,319.56c3.2-9.16,10.56-5.4,17.18-3.37Q483.2,340.32,562,316c6.89-2.12,14-5.13,16.75,4.17,2.51,8.38-5,10.54-11,12.47a274.6,274.6,0,0,1-84.53,13.17,276.87,276.87,0,0,1-84.58-12.86C392.44,330.9,383.93,328.87,387.18,319.56Z" transform="translate(-336.46 -98.53)"/></g></svg>